<?xml version="1.0" encoding="UTF-8" standalone="no"?>
<svg width="301px" height="340px" viewBox="0 0 301 340" version="1.1" xmlns="http://www.w3.org/2000/svg" xmlns:xlink="http://www.w3.org/1999/xlink" xmlns:sketch="http://www.bohemiancoding.com/sketch/ns">
    <!-- Generator: Sketch 3.2.2 (9983) - http://www.bohemiancoding.com/sketch -->
    <title>hawk-no-circle 14</title>
    <desc>Created with Sketch.</desc>
    <defs>
        <rect id="path-1" x="-392.63527" y="-82" width="1086.27054" height="572.76"></rect>
    </defs>
    <g id="Page-1" stroke="none" stroke-width="1" fill="none" fill-rule="evenodd" sketch:type="MSPage">
        <g id="Rectangle-26" opacity="0">
            <use stroke="#979797" stroke-width="1" fill="#995AA3" fill-rule="evenodd" sketch:type="MSShapeGroup" xlink:href="#path-1"></use>
            <use stroke="none" fill="none" xlink:href="#path-1"></use>
        </g>
        <g id="hawk-no-circle-14" sketch:type="MSLayerGroup" transform="translate(0.500000, -3.000000)" fill="#FFFFFF">
            <path d="M196.701884,316.88437 C197.131087,323.094916 192.266787,328.458569 185.971812,328.882016 C185.113406,328.882016 184.111932,328.882016 183.253527,328.740867 C186.401014,327.752825 188.547029,324.788701 188.403961,321.40113 C188.117826,317.448965 184.684203,314.48484 180.678309,314.625989 C177.816956,314.767138 175.384807,316.602072 174.383333,319.14275 C173.811063,316.178626 173.95413,312.649906 175.527874,310.109228 C176.243213,308.838889 177.387754,307.709699 178.532295,306.862806 C179.104565,306.43936 181.393647,304.463277 182.108985,304.604426 L191.408382,307.145104 C191.551449,307.286253 193.840531,307.709699 193.840531,307.850848 C194.985072,310.673823 196.558816,313.35565 196.701884,316.88437 L196.701884,316.88437 Z M295.561619,319.848494 C301.284324,337.492091 280.39645,342.714596 280.39645,342.714596 C280.39645,342.714596 287.120628,329.870057 274.387609,323.094916 C269.094107,320.27194 264.229807,318.860452 258.507102,317.307816 L155.641473,290.20725 C157.358285,290.630697 165.370072,307.286253 166.514613,311.944162 C168.374493,319.14275 164.654734,326.905933 156.499879,327.329379 C155.641473,327.329379 154.64,327.329379 153.781594,327.18823 C156.929082,326.200189 159.075097,323.236065 158.932029,319.848494 C158.645894,315.896328 155.21227,312.932204 151.206377,313.073352 C148.345024,313.214501 145.912874,315.049435 144.911401,317.590113 C144.052995,313.496799 144.911401,309.121187 148.201956,306.721657 C148.345024,306.580509 147.629686,304.322128 147.629686,304.039831 C147.057415,302.346045 146.342077,300.793409 145.626739,299.240772 C142.193116,292.324482 136.613478,286.396233 129.317029,283.573258 C74.3790576,263.247834 49.7714246,252.943973 17.8673424,216.951035 C12.1446371,210.458191 6.99420227,203.118454 4.13284961,194.931825 L47.4823425,209.470149 C34.6062555,194.931825 24.5915212,177.147079 16.7228013,160.209226 C5.70659357,136.778529 -3.44973496,91.0463244 1.27149694,65.9218418 C1.27149694,65.9218418 237.619227,237.558756 250.495314,245.745385 C264.65901,254.920056 276.962826,263.530131 283.114735,269.599529 C292.986401,279.338795 299.71058,292.183333 299.996715,306.157062 C300.139783,316.460923 295.561619,319.848494 295.561619,319.848494 L295.561619,319.848494 Z M284.259276,306.298211 C280.110314,290.348399 273.243068,288.231168 273.243068,288.231168 C273.243068,288.231168 267.949566,292.60678 271.240121,298.958475 C274.244541,304.745575 284.259276,306.298211 284.259276,306.298211 L284.259276,306.298211 Z M76.5250721,109.536814 L246.203285,233.747739 C237.046957,221.608944 92.6917146,3.11063553 92.6917146,3.11063553 C79.67256,25.1298449 72.8053136,71.2854954 75.2374634,97.1157218 C75.5235986,101.209036 75.9528015,105.302351 76.5250721,109.536814 L76.5250721,109.536814 Z" id="Shape" sketch:type="MSShapeGroup"></path>
        </g>
    </g>
</svg>