<?xml version="1.0" encoding="utf-8"?>
<!-- Generator: Adobe Illustrator 18.1.0, SVG Export Plug-In . SVG Version: 6.00 Build 0)  -->
<svg version="1.1" id="Layer_1" xmlns="http://www.w3.org/2000/svg" xmlns:xlink="http://www.w3.org/1999/xlink" x="0px" y="0px"
	 viewBox="0 0 392 392" enable-background="new 0 0 392 392" xml:space="preserve">
<path fill="#995AA3" d="M289.8,278.8c0,0-6.9-1.1-9.1-5.2c-2.3-4.5,1.4-7.6,1.4-7.6S287,267.5,289.8,278.8z M392,196
	c0,108.2-87.8,196-196,196C87.8,392,0,304.2,0,196S87.8,0,196,0C304.2,0,392,87.8,392,196z M143.7,130.6c0.3,2.9,0.6,5.8,1,8.8
	l118.6,88C256.8,218.9,156,64,156,64C146.9,79.7,142.1,112.3,143.7,130.6z M228.7,286.3c-0.2-2.5-1.2-4.4-2-6.4
	c-0.1-0.2-1.6-0.4-1.7-0.5c0,0-6.5-1.8-6.5-1.8c-0.5-0.1-2.1,1.3-2.5,1.6c-0.8,0.7-1.6,1.5-2.1,2.3c-1.1,1.8-1.2,4.3-0.8,6.4
	c0.7-1.8,2.4-3.1,4.4-3.2c2.8-0.2,5.2,2,5.4,4.8c0.1,2.4-1.4,4.5-3.6,5.2c0.6,0.1,1.3,0.2,1.9,0.1
	C225.6,294.6,229,290.8,228.7,286.3z M297.7,288.4c0,0,3.2-2.4,3.1-9.6c-0.2-9.8-4.9-18.9-11.8-25.9c-4.3-4.3-12.9-10.4-22.8-16.9
	c-8.9-5.9-174.1-127.4-174.2-127.4c-3.3,17.8,3.1,50.2,10.7,66.9c5.5,12,12.5,24.6,21.5,34.9L94,200.1c2,5.8,5.6,11,9.6,15.6
	c22.3,25.5,39.5,32.8,77.9,47.2c5.2,1.9,9.1,6.1,11.4,11.1c0.5,1.1,1.1,2.2,1.4,3.4c0.1,0.2,0.6,1.8,0.4,1.9
	c-2.3,1.7-2.9,4.8-2.3,7.7c0.7-1.8,2.4-3.1,4.4-3.2c2.8-0.2,5.2,2,5.4,4.8c0.1,2.4-1.4,4.5-3.6,5.2c0.6,0.1,1.3,0.2,1.9,0.1
	c5.7-0.3,8.3-5.8,7-10.9c-0.8-3.4-6.5-15.1-7.6-15.4c0,0,71.9,19.2,71.9,19.2c4,1.1,7.4,2.1,11.1,4.1c8.9,4.8,4.2,13.9,4.2,13.9
	S301.7,300.9,297.7,288.4z"/>
</svg>
