<?xml version="1.0" encoding="utf-8"?>
<!-- Generator: Adobe Illustrator 18.1.0, SVG Export Plug-In . SVG Version: 6.00 Build 0)  -->
<svg version="1.1" id="Layer_1" xmlns="http://www.w3.org/2000/svg" xmlns:xlink="http://www.w3.org/1999/xlink" x="0px" y="0px"
	 viewBox="0 0 209.6 240.6" enable-background="new 0 0 209.6 240.6" xml:space="preserve">
<path fill="#995AA3" d="M137.5,222.3c0.3,4.4-3.1,8.2-7.5,8.5c-0.6,0-1.3,0-1.9-0.1c2.2-0.7,3.7-2.8,3.6-5.2
	c-0.2-2.8-2.6-4.9-5.4-4.8c-2,0.1-3.7,1.4-4.4,3.2c-0.4-2.1-0.3-4.6,0.8-6.4c0.5-0.9,1.3-1.7,2.1-2.3c0.4-0.3,2-1.7,2.5-1.6
	c0,0,6.5,1.8,6.5,1.8c0.1,0.1,1.7,0.4,1.7,0.5C136.3,217.9,137.4,219.8,137.5,222.3z M206.6,224.4c4,12.5-10.6,16.2-10.6,16.2
	s4.7-9.1-4.2-13.9c-3.7-2-7.1-3-11.1-4.1c0,0-71.9-19.2-71.9-19.2c1.2,0.3,6.8,12.1,7.6,15.4c1.3,5.1-1.3,10.6-7,10.9
	c-0.6,0-1.3,0-1.9-0.1c2.2-0.7,3.7-2.8,3.6-5.2c-0.2-2.8-2.6-4.9-5.4-4.8c-2,0.1-3.7,1.4-4.4,3.2c-0.6-2.9,0-6,2.3-7.7
	c0.1-0.1-0.4-1.7-0.4-1.9c-0.4-1.2-0.9-2.3-1.4-3.4c-2.4-4.9-6.3-9.1-11.4-11.1c-38.4-14.4-55.6-21.7-77.9-47.2
	c-4-4.6-7.6-9.8-9.6-15.6l30.3,10.3c-9-10.3-16-22.9-21.5-34.9C4,94.7-2.4,62.3,0.9,44.5c0,0,165.2,121.6,174.2,127.4
	c9.9,6.5,18.5,12.6,22.8,16.9c6.9,6.9,11.6,16,11.8,25.9C209.8,222,206.6,224.4,206.6,224.4z M198.7,214.8
	c-2.9-11.3-7.7-12.8-7.7-12.8s-3.7,3.1-1.4,7.6C191.7,213.7,198.7,214.8,198.7,214.8z M53.5,75.4l118.6,88
	C165.7,154.8,64.8,0,64.8,0c-9.1,15.6-13.9,48.3-12.2,66.6C52.8,69.5,53.1,72.4,53.5,75.4z"/>
</svg>
